<svg width="476" height="210" viewBox="0 0 476 210" fill="none" xmlns="http://www.w3.org/2000/svg">
<g clip-path="url(#clip0_554_2)">
<path d="M205.097 126.838C185.834 126.838 173.523 114.777 173.523 96.4356C173.523 80.3552 186.169 66.7874 205.013 66.7874C210.206 66.7874 218.832 67.9599 223.187 70.8912L223.523 81.9465L222.517 82.1977C219.084 73.5713 210.29 68.3787 201.915 68.3787C190.943 68.3787 182.484 75.7488 182.317 90.9079C182.149 106.737 191.781 124.827 207.861 124.827C213.137 124.827 217.911 122.65 220.005 118.462V110.841C220.005 104.308 219.251 101.963 215.65 100.958V99.7856H228.631V115.196C222.35 123.404 212.048 126.838 205.097 126.838ZM234.654 126V124.827C237.417 123.906 238.004 121.394 238.004 115.364V70.975C238.004 66.0336 236.747 65.1961 234.654 64.2748V63.1023L245.709 58.2447L246.546 58.9147V115.364C246.546 121.394 247.133 123.906 249.897 124.827V126H234.654ZM255.097 126V124.827C257.861 123.906 258.447 121.394 258.447 115.364V96.1006C258.447 91.1592 257.191 90.3217 255.097 89.4004V88.2279L266.152 83.3703L266.99 84.0403V115.364C266.99 121.394 267.576 123.906 270.34 124.827V126H255.097ZM262.216 80.5227C259.033 80.5227 256.521 78.0101 256.521 74.8276C256.521 71.5612 259.033 69.0487 262.216 69.0487C265.566 69.0487 267.911 71.5612 267.911 74.8276C267.911 78.0101 265.398 80.5227 262.216 80.5227ZM275.217 126V124.827C277.981 123.906 278.567 121.394 278.567 115.364V96.1006C278.567 91.1592 277.311 90.3217 275.217 89.4004V88.2279L286.272 83.3703L287.11 84.0403V91.0754C291.716 87.3066 297.746 83.5378 304.279 83.5378C310.142 83.5378 313.994 85.7991 315.585 91.1592C320.192 87.3904 326.306 83.5378 332.922 83.5378C340.627 83.5378 344.982 87.5579 344.982 97.3568V115.364C344.982 121.394 345.569 123.906 348.332 124.827V126H333.09V124.827C335.853 123.906 336.44 121.394 336.44 115.364V98.8644C336.44 91.3267 334.011 86.8879 327.813 86.8879C323.877 86.8879 320.276 88.8141 315.837 92.3317C316.172 93.8393 316.339 95.5143 316.339 97.3568V115.364C316.339 121.394 316.926 123.906 319.689 124.827V126H304.446V124.827C307.21 123.906 307.797 121.394 307.797 115.364V98.8644C307.797 91.3267 305.368 86.8879 299.17 86.8879C295.234 86.8879 291.632 88.8141 287.11 92.4992V115.364C287.11 121.394 287.696 123.906 290.46 124.827V126H275.217ZM365.335 126.838C359.64 126.838 356.625 123.236 356.625 114.191V85.4641H351.265V84.124L363.828 73.0688H365.168V84.124H378.149L377.814 85.4641H365.168V114.275C365.168 119.467 367.094 121.729 370.779 121.729C372.622 121.729 375.469 120.975 378.233 117.541L379.071 118.379C374.632 123.487 370.361 126.838 365.335 126.838ZM381.788 126V124.827C384.552 123.906 385.138 121.394 385.138 115.364V96.1006C385.138 91.1592 383.882 90.3217 381.788 89.4004V88.2279L392.843 83.3703L393.681 84.0403V115.364C393.681 121.394 394.267 123.906 397.031 124.827V126H381.788ZM388.907 80.5227C385.724 80.5227 383.212 78.0101 383.212 74.8276C383.212 71.5612 385.724 69.0487 388.907 69.0487C392.257 69.0487 394.602 71.5612 394.602 74.8276C394.602 78.0101 392.09 80.5227 388.907 80.5227ZM401.908 126V124.827C404.672 123.906 405.258 121.394 405.258 115.364V96.1006C405.258 91.1592 404.002 90.3217 401.908 89.4004V88.2279L412.963 83.3703L413.801 84.0403V91.0754C418.407 87.3066 424.437 83.5378 430.97 83.5378C438.675 83.5378 443.868 87.5579 443.868 97.3568V115.364C443.868 121.394 444.454 123.906 447.218 124.827V126H431.975V124.827C434.739 123.906 435.325 121.394 435.325 115.364V98.8644C435.325 91.3267 432.059 86.8879 425.861 86.8879C421.925 86.8879 418.324 88.8141 413.801 92.4992V115.364C413.801 121.394 414.387 123.906 417.151 124.827V126H401.908Z" fill="#634396"/>
<path d="M138.787 108.44H126.035V95.7476H138.787V108.44Z" fill="#634396"/>
<path d="M72.2111 81.6156C72.2006 81.4122 72.1849 81.2452 72.1849 81.0783C72.1849 77.2178 72.1849 73.3573 72.1797 69.4916C72.1797 69.0951 72.2163 68.8604 72.7241 68.8604C76.7078 68.8812 80.6914 68.8708 84.6698 68.876C84.7536 68.876 84.8373 68.8969 84.9682 68.9125V81.6156H72.2111Z" fill="#EA68A2"/>
<path d="M111.906 68.9184V81.611H99.1016V81.0163C99.1016 77.1976 99.1016 73.3736 99.1016 69.5548C99.1016 69.1584 99.0859 68.8662 99.6565 68.8662C103.598 68.8871 107.54 68.8766 111.482 68.8819C111.607 68.8819 111.733 68.9027 111.911 68.9236L111.906 68.9184Z" fill="#86D3D3"/>
<path d="M72.2441 122.539H84.9699V135.247H72.2441V122.539Z" fill="#86D3D3"/>
<path d="M99.1387 135.25V122.542H111.87V135.25H99.1387Z" fill="#634396"/>
<path d="M31.8965 95.7275H44.6065V108.441H31.8965V95.7275Z" fill="#634396"/>
<path d="M58.0661 108.46H45.3613V95.7305H58.0661V108.46Z" fill="#86D3D3"/>
<path d="M85.6895 41.3867V28.6992H98.3995V41.3867H85.6895Z" fill="#FFDA7D"/>
<path d="M85.6836 54.8035V42.1108H98.3936V54.8035H85.6836Z" fill="#EA68A2"/>
<path d="M85.2379 68.0005H72.5488V55.2817H85.2379V68.0005Z" fill="#FFDA7D"/>
<path d="M99.1973 67.9941V55.291H111.928V67.9941H99.1973Z" fill="#EA68A2"/>
<path d="M58.7969 82.3252H71.5278V94.997H58.7969V82.3252Z" fill="#EA68A2"/>
<path d="M139.523 95.7393H152.218V108.432H139.523V95.7393Z" fill="#634396"/>
<path d="M71.5291 109.159V121.831H58.8086V109.159H71.5291Z" fill="#86D3D3"/>
<path d="M84.9797 148.651H72.2383V135.985H84.9797V148.651Z" fill="#634396"/>
<path d="M111.87 148.642H99.1387V135.976H111.87V148.642Z" fill="#634396"/>
<path d="M98.4073 162.074H85.6973V149.361H98.4073V162.074Z" fill="#634396"/>
<path d="M125.323 82.3452V95.0066H112.613V82.3452H125.323Z" fill="#634396"/>
<path d="M125.334 109.176V121.822H112.619V109.176H125.334Z" fill="#634396"/>
<path d="M85.6777 175.461V162.811H98.4087V175.461H85.6777Z" fill="#634396"/>
</g>
<defs>
<clipPath id="clip0_554_2">
<rect width="476" height="210" fill="white"/>
</clipPath>
</defs>
</svg>
