<svg width="429" height="210" viewBox="0 0 429 210" fill="none" xmlns="http://www.w3.org/2000/svg">
<g clip-path="url(#clip0_554_2)">
<path d="M179.097 126.838C159.834 126.838 147.523 114.777 147.523 96.4356C147.523 80.3552 160.169 66.7874 179.013 66.7874C184.206 66.7874 192.832 67.9599 197.187 70.8912L197.523 81.9465L196.517 82.1977C193.084 73.5713 184.29 68.3787 175.915 68.3787C164.943 68.3787 156.484 75.7488 156.317 90.9079C156.149 106.737 165.781 124.827 181.861 124.827C187.137 124.827 191.911 122.65 194.005 118.462V110.841C194.005 104.308 193.251 101.963 189.65 100.958V99.7856H202.631V115.196C196.35 123.404 186.048 126.838 179.097 126.838ZM208.654 126V124.827C211.417 123.906 212.004 121.394 212.004 115.364V70.975C212.004 66.0336 210.747 65.1961 208.654 64.2748V63.1023L219.709 58.2447L220.546 58.9147V115.364C220.546 121.394 221.133 123.906 223.897 124.827V126H208.654ZM229.097 126V124.827C231.861 123.906 232.447 121.394 232.447 115.364V96.1006C232.447 91.1592 231.191 90.3217 229.097 89.4004V88.2279L240.152 83.3703L240.99 84.0403V115.364C240.99 121.394 241.576 123.906 244.34 124.827V126H229.097ZM236.216 80.5227C233.033 80.5227 230.521 78.0101 230.521 74.8276C230.521 71.5612 233.033 69.0487 236.216 69.0487C239.566 69.0487 241.911 71.5612 241.911 74.8276C241.911 78.0101 239.398 80.5227 236.216 80.5227ZM249.217 126V124.827C251.981 123.906 252.567 121.394 252.567 115.364V96.1006C252.567 91.1592 251.311 90.3217 249.217 89.4004V88.2279L260.272 83.3703L261.11 84.0403V91.0754C265.716 87.3066 271.746 83.5378 278.279 83.5378C284.142 83.5378 287.994 85.7991 289.585 91.1592C294.192 87.3904 300.306 83.5378 306.922 83.5378C314.627 83.5378 318.982 87.5579 318.982 97.3568V115.364C318.982 121.394 319.569 123.906 322.332 124.827V126H307.09V124.827C309.853 123.906 310.44 121.394 310.44 115.364V98.8644C310.44 91.3267 308.011 86.8879 301.813 86.8879C297.877 86.8879 294.276 88.8141 289.837 92.3317C290.172 93.8393 290.339 95.5143 290.339 97.3568V115.364C290.339 121.394 290.926 123.906 293.689 124.827V126H278.446V124.827C281.21 123.906 281.797 121.394 281.797 115.364V98.8644C281.797 91.3267 279.368 86.8879 273.17 86.8879C269.234 86.8879 265.632 88.8141 261.11 92.4992V115.364C261.11 121.394 261.696 123.906 264.46 124.827V126H249.217ZM339.335 126.838C333.64 126.838 330.625 123.236 330.625 114.191V85.4641H325.265V84.124L337.828 73.0688H339.168V84.124H352.149L351.814 85.4641H339.168V114.275C339.168 119.467 341.094 121.729 344.779 121.729C346.622 121.729 349.469 120.975 352.233 117.541L353.071 118.379C348.632 123.487 344.361 126.838 339.335 126.838ZM355.788 126V124.827C358.552 123.906 359.138 121.394 359.138 115.364V96.1006C359.138 91.1592 357.882 90.3217 355.788 89.4004V88.2279L366.843 83.3703L367.681 84.0403V115.364C367.681 121.394 368.267 123.906 371.031 124.827V126H355.788ZM362.907 80.5227C359.724 80.5227 357.212 78.0101 357.212 74.8276C357.212 71.5612 359.724 69.0487 362.907 69.0487C366.257 69.0487 368.602 71.5612 368.602 74.8276C368.602 78.0101 366.09 80.5227 362.907 80.5227ZM375.908 126V124.827C378.672 123.906 379.258 121.394 379.258 115.364V96.1006C379.258 91.1592 378.002 90.3217 375.908 89.4004V88.2279L386.963 83.3703L387.801 84.0403V91.0754C392.407 87.3066 398.437 83.5378 404.97 83.5378C412.675 83.5378 417.868 87.5579 417.868 97.3568V115.364C417.868 121.394 418.454 123.906 421.218 124.827V126H405.975V124.827C408.739 123.906 409.325 121.394 409.325 115.364V98.8644C409.325 91.3267 406.059 86.8879 399.861 86.8879C395.925 86.8879 392.324 88.8141 387.801 92.4992V115.364C387.801 121.394 388.387 123.906 391.151 124.827V126H375.908Z" fill="#634396"/>
<path d="M112.787 108.44H100.035V95.7476H112.787V108.44Z" fill="#634396"/>
<path d="M46.2111 81.6156C46.2006 81.4122 46.1849 81.2452 46.1849 81.0783C46.1849 77.2178 46.1849 73.3573 46.1797 69.4916C46.1797 69.0951 46.2163 68.8604 46.7241 68.8604C50.7078 68.8812 54.6914 68.8708 58.6698 68.876C58.7536 68.876 58.8373 68.8969 58.9682 68.9125V81.6156H46.2111Z" fill="#EA68A2"/>
<path d="M85.9058 68.9184V81.611H73.1016V81.0163C73.1016 77.1976 73.1016 73.3736 73.1016 69.5548C73.1016 69.1584 73.0859 68.8662 73.6565 68.8662C77.5983 68.8871 81.54 68.8766 85.4818 68.8819C85.6075 68.8819 85.7331 68.9027 85.9111 68.9236L85.9058 68.9184Z" fill="#86D3D3"/>
<path d="M46.2441 122.539H58.9699V135.247H46.2441V122.539Z" fill="#86D3D3"/>
<path d="M73.1387 135.25V122.542H85.8696V135.25H73.1387Z" fill="#634396"/>
<path d="M5.89648 95.7275H18.6065V108.441H5.89648V95.7275Z" fill="#634396"/>
<path d="M32.0661 108.46H19.3613V95.7305H32.0661V108.46Z" fill="#86D3D3"/>
<path d="M59.6895 41.3867V28.6992H72.3995V41.3867H59.6895Z" fill="#FFDA7D"/>
<path d="M59.6836 54.8035V42.1108H72.3936V54.8035H59.6836Z" fill="#EA68A2"/>
<path d="M59.2379 68.0005H46.5488V55.2817H59.2379V68.0005Z" fill="#FFDA7D"/>
<path d="M73.1973 67.9941V55.291H85.9282V67.9941H73.1973Z" fill="#EA68A2"/>
<path d="M32.7969 82.3252H45.5278V94.997H32.7969V82.3252Z" fill="#EA68A2"/>
<path d="M113.523 95.7393H126.218V108.432H113.523V95.7393Z" fill="#634396"/>
<path d="M45.5291 109.159V121.831H32.8086V109.159H45.5291Z" fill="#86D3D3"/>
<path d="M58.9797 148.651H46.2383V135.985H58.9797V148.651Z" fill="#634396"/>
<path d="M85.8696 148.642H73.1387V135.976H85.8696V148.642Z" fill="#634396"/>
<path d="M72.4073 162.074H59.6973V149.361H72.4073V162.074Z" fill="#634396"/>
<path d="M99.3233 82.3452V95.0066H86.6133V82.3452H99.3233Z" fill="#634396"/>
<path d="M99.3344 109.176V121.822H86.6191V109.176H99.3344Z" fill="#634396"/>
<path d="M59.6777 175.461V162.811H72.4087V175.461H59.6777Z" fill="#634396"/>
</g>
<defs>
<clipPath id="clip0_554_2">
<rect width="429" height="210" fill="white"/>
</clipPath>
</defs>
</svg>
