<svg width="15" height="15" viewBox="0 0 15 15" fill="none" xmlns="http://www.w3.org/2000/svg">
<path d="M10.136 11.0476C10.0675 11.1009 9.99481 11.1401 9.91803 11.1651C9.84151 11.1905 9.75755 11.1975 9.66614 11.1861L3.63328 10.4317C3.45046 10.4089 3.304 10.3266 3.1939 10.1851C3.08407 10.0438 3.04058 9.88182 3.06344 9.69901C3.0863 9.5162 3.16628 9.37147 3.3034 9.26483C3.44051 9.1582 3.60048 9.11631 3.78329 9.13917L8.26224 9.69922L3.7835 3.94036C3.6702 3.79468 3.62625 3.63631 3.65167 3.46527C3.67673 3.29449 3.76211 3.15245 3.90779 3.03915C4.05348 2.92584 4.21394 2.87999 4.38917 2.9016C4.56433 2.92381 4.70856 3.00776 4.82187 3.15344L9.29061 8.89944L9.85066 4.42049C9.87352 4.23768 9.95351 4.09295 10.0906 3.98632C10.2277 3.87968 10.3877 3.83779 10.5705 3.86065C10.7533 3.88351 10.8997 3.96555 11.0095 4.10678C11.1196 4.24836 11.1632 4.41055 11.1404 4.59336L10.386 10.6262C10.3746 10.7176 10.3471 10.7973 10.3037 10.8652C10.2605 10.9335 10.2046 10.9942 10.136 11.0476Z" fill="white"/>
</svg>
