<svg width="15" height="15" viewBox="0 0 15 15" fill="none" xmlns="http://www.w3.org/2000/svg">
<path d="M10.136 11.0474C10.0675 11.1007 9.99481 11.1399 9.91803 11.165C9.84151 11.1904 9.75755 11.1973 9.66614 11.1859L3.63328 10.4316C3.45046 10.4087 3.304 10.3265 3.1939 10.1849C3.08407 10.0437 3.04058 9.88166 3.06344 9.69884C3.0863 9.51603 3.16628 9.3713 3.3034 9.26467C3.44051 9.15803 3.60048 9.11614 3.78329 9.139L8.26224 9.69905L3.7835 3.9402C3.6702 3.79451 3.62625 3.63615 3.65167 3.4651C3.67673 3.29432 3.76211 3.15228 3.90779 3.03898C4.05348 2.92568 4.21394 2.87983 4.38917 2.90143C4.56433 2.92364 4.70856 3.00759 4.82187 3.15328L9.29061 8.89928L9.85066 4.42033C9.87352 4.23751 9.95351 4.09279 10.0906 3.98615C10.2277 3.87951 10.3877 3.83763 10.5705 3.86049C10.7533 3.88334 10.8997 3.96539 11.0095 4.10662C11.1196 4.24819 11.1632 4.41038 11.1404 4.5932L10.386 10.6261C10.3746 10.7175 10.3471 10.7971 10.3037 10.865C10.2605 10.9333 10.2046 10.9941 10.136 11.0474Z" fill="#634396"/>
</svg>
