<svg width="25" height="26" viewBox="0 0 25 26" fill="none" xmlns="http://www.w3.org/2000/svg">
<g clip-path="url(#clip0_769_282)">
<path d="M17.0955 2.74416C15.8213 0.278332 12.5625 -0.360998 10.0526 0.17862C8.4011 0.534065 6.69134 1.54761 6.18819 3.26501C2.30163 3.41047 -0.79527 6.89453 0.181903 10.8572C0.959913 14.0116 4.28393 15.9284 7.41228 15.4756C9.77776 18.2394 14.3666 18.3685 17.078 16.0411C20.4929 16.8786 23.761 14.7354 24.7137 11.4062C26.1148 6.5121 22.1863 1.61448 17.0943 2.74416H17.0955ZM16.7985 15.2598C15.027 17.1684 11.7647 17.4206 9.51104 16.2675C8.76099 15.8839 8.26366 15.3607 7.76401 14.692C5.11552 15.2445 2.17468 13.9717 1.11948 11.3992C-0.493616 7.46582 2.87233 3.72016 6.82993 3.98293C6.80082 3.40108 7.10247 2.82041 7.46119 2.38636C9.42835 0.00852307 14.956 0.139908 16.4339 2.98816C16.5027 3.12072 16.6168 3.59464 16.7088 3.61224C19.7661 2.47787 23.0529 4.37474 23.9951 7.41772C25.4242 12.0373 21.569 16.6476 16.7985 15.261V15.2598Z" fill="#F2A1C5"/>
<path d="M17.7852 16.8264C14.2924 17.3038 14.7594 22.9827 18.6029 22.6097C22.3089 22.2495 21.8442 16.2715 17.7852 16.8264ZM16.5379 21.0213C15.1717 19.2253 17.1388 16.8076 19.1223 17.61C19.1503 17.6206 19.5381 17.8939 19.5952 17.9408C22.1831 20.0981 18.5004 23.6021 16.5379 21.0213Z" fill="#F2A1C5"/>
<path d="M20.8805 22.283C18.8691 22.5575 19.1416 25.5735 21.1402 25.5265C23.2821 25.4749 23.0794 21.9826 20.8805 22.283ZM21.1262 24.7981C19.9953 24.8614 19.8486 23.1393 20.9515 22.9868C22.1605 22.8202 22.3398 24.73 21.1262 24.7981Z" fill="#F2A1C5"/>
</g>
<defs>
<clipPath id="clip0_769_282">
<rect width="25" height="25.5263" fill="white"/>
</clipPath>
</defs>
</svg>
