<svg width="21" height="23" viewBox="0 0 21 23" fill="none" xmlns="http://www.w3.org/2000/svg">
<path d="M18 2.25H16.875V0H14.625V2.25H5.625V0H3.375V2.25H2.25C1.00125 2.25 0.01125 3.2625 0.01125 4.5L0 20.25C0 21.4875 1.00125 22.5 2.25 22.5H18C19.2375 22.5 20.25 21.4875 20.25 20.25V4.5C20.25 3.2625 19.2375 2.25 18 2.25ZM18 20.25H2.25V9H18V20.25ZM6.75 13.5H4.5V11.25H6.75V13.5ZM11.25 13.5H9V11.25H11.25V13.5ZM15.75 13.5H13.5V11.25H15.75V13.5ZM6.75 18H4.5V15.75H6.75V18ZM11.25 18H9V15.75H11.25V18ZM15.75 18H13.5V15.75H15.75V18Z" fill="#F2A1C5"/>
</svg>
