<svg width="40" height="35" viewBox="0 0 40 35" fill="none" xmlns="http://www.w3.org/2000/svg">
<g clip-path="url(#clip0_549_165)">
<path d="M24.9162 23.0966L18.4071 29.7361C17.2806 30.8853 17.2961 32.7345 18.4416 33.8664L18.4777 33.9009C19.6232 35.0311 21.4662 35.0156 22.5944 33.8664L38.0086 18.142C39.7258 16.3897 39.7034 13.5452 37.9552 11.8222L27.7049 1.70917C25.9411 -0.0293362 23.0818 -0.00514217 21.349 1.76274L20.5102 2.62336" stroke="#3D316B" stroke-width="0.972222" stroke-miterlimit="10" stroke-linecap="round"/>
<path d="M16.643 14.9642L10.2235 21.5138C9.08664 22.6734 7.20918 22.7581 6.04136 21.6296C5.44711 21.0559 5.14569 20.2938 5.1388 19.5299C5.13191 18.7765 5.41266 18.0213 5.98107 17.4406L14.1816 9.20947" stroke="#3D316B" stroke-width="0.972222" stroke-miterlimit="10" stroke-linecap="round"/>
<path d="M24.916 23.0966L18.3965 29.7465C17.2752 30.8905 15.4426 30.906 14.3023 29.781C13.7322 29.2194 13.4428 28.4763 13.4376 27.7332C13.4307 26.9901 13.708 26.2453 14.2696 25.6732L20.7821 19.0303" stroke="#3D316B" stroke-width="0.972222" stroke-miterlimit="10"/>
<path d="M20.78 19.0304L14.2674 25.6734C13.1461 26.8174 11.3134 26.833 10.1714 25.7062C9.6013 25.1446 9.31366 24.4032 9.30677 23.6601C9.29988 22.917 9.57719 22.1705 10.137 21.5985L16.6409 14.9624" stroke="#3D316B" stroke-width="0.972222" stroke-miterlimit="10" stroke-linecap="round"/>
<path d="M20.0575 4.61426L24.8028 9.17309C25.8449 10.2013 25.7777 11.9675 24.6495 13.1184L24.6151 13.1547C23.4886 14.3039 21.7283 14.4024 20.6862 13.3742L15.3242 8.08782" stroke="#3D316B" stroke-width="0.972222" stroke-miterlimit="10" stroke-linecap="round"/>
<path d="M20.1976 4.75591L16.7906 1.39468C15.2008 -0.172743 12.581 -0.108802 10.967 1.53811L1.49358 11.2019C-0.135851 12.8626 -0.15652 15.517 1.44708 16.9583L3.63975 19.1167" stroke="#3D316B" stroke-width="0.972222" stroke-miterlimit="10" stroke-linecap="round"/>
</g>
<defs>
<clipPath id="clip0_549_165">
<rect width="39.537" height="35" fill="white"/>
</clipPath>
</defs>
</svg>
