<svg width="20" height="29" viewBox="0 0 20 29" fill="none" xmlns="http://www.w3.org/2000/svg">
<g clip-path="url(#clip0_769_277)">
<path d="M4.57023 1.53964C-0.708513 4.85288 -1.38772 11.5834 2.39396 16.3539C3.54222 17.8024 4.28642 18.783 4.8963 20.614C5.1032 21.2338 5.18011 21.9239 5.37185 22.5025C5.3946 22.5697 5.41193 22.6325 5.47151 22.6769H10.1425L10.2249 22.5946V13.6051C11.5085 13.3949 12.3589 12.1175 12.0794 10.8423C11.7274 9.23874 9.81106 8.49548 8.47107 9.45868C6.82234 10.644 7.40838 13.2703 9.40051 13.6051V21.8524H6.0478C5.69249 20.133 4.96887 18.3723 3.94952 16.9411C3.35048 16.1003 2.61386 15.4394 2.06789 14.5347C-0.835254 9.71763 1.39302 3.3447 6.64035 1.4118C13.9643 -1.28603 21.0337 5.87242 18.2367 13.1793C17.4719 15.1783 15.9207 16.3376 14.923 18.1676C14.5254 18.8967 13.5223 21.2349 13.5223 21.99V23.6672H6.24171C5.33285 24.4874 5.3166 25.7182 6.21463 26.5514L13.0999 26.5926C13.5104 26.8873 13.7346 27.2795 13.479 27.7746C13.4335 27.8624 13.1952 28.1755 13.1107 28.1755H5.44443V29H13.3858C13.4032 29 13.6198 28.8159 13.6621 28.7812C14.4853 28.104 14.6793 27.1213 13.9643 26.2762C13.7769 26.0552 13.4714 25.7627 13.1692 25.7529L6.58294 25.7562C6.24279 25.3358 6.29696 24.9403 6.54394 24.4907H14.2925V22.2641C14.2925 21.5057 15.2415 19.2781 15.6379 18.5511C16.7526 16.5066 18.3234 15.4622 19.1293 13.0818C22.0996 4.31873 12.4131 -3.38362 4.57023 1.53964Z" fill="#F2A1C5"/>
</g>
<defs>
<clipPath id="clip0_769_277">
<rect width="19.6786" height="29" fill="white"/>
</clipPath>
</defs>
</svg>
