<svg width="25" height="36" viewBox="0 0 25 36" fill="none" xmlns="http://www.w3.org/2000/svg">
<g clip-path="url(#clip0_549_163)">
<path d="M5.67339 1.91128C-0.879533 6.02426 -1.72269 14.3793 2.97181 20.3013C4.39723 22.0996 5.32107 23.3168 6.07816 25.5898C6.33501 26.3592 6.43048 27.2159 6.6685 27.9341C6.69674 28.0175 6.71826 28.0955 6.79222 28.1507H12.5907L12.6929 28.0485V16.8891C14.2865 16.6282 15.3421 15.0424 14.9951 13.4594C14.5581 11.4688 12.1793 10.5461 10.5158 11.7418C8.46911 13.2132 9.19662 16.4735 11.6696 16.8891V27.1272H7.50762C7.06654 24.9927 6.16826 22.807 4.90286 21.0303C4.15921 19.9866 3.24479 19.1662 2.56704 18.0431C-1.03687 12.0633 1.72927 4.15204 8.24319 1.75257C17.335 -1.59645 26.1108 7.2899 22.6387 16.3605C21.6893 18.842 19.7636 20.2812 18.5251 22.5528C18.0316 23.458 16.7863 26.3605 16.7863 27.298V29.38H7.74833C6.62009 30.3982 6.59992 31.9261 7.71471 32.9604L16.2619 33.0115C16.7715 33.3773 17.0499 33.8642 16.7325 34.4789C16.6761 34.5878 16.3802 34.9765 16.2753 34.9765H6.7586V36.0001H16.6169C16.6384 36.0001 16.9074 35.7714 16.9598 35.7284C17.9818 34.8877 18.2225 33.6678 17.335 32.6187C17.1024 32.3444 16.7231 31.9812 16.3479 31.9691L8.17192 31.9732C7.74967 31.4513 7.81691 30.9604 8.12351 30.4022H17.7424V27.6383C17.7424 26.6968 18.9204 23.9315 19.4126 23.029C20.7964 20.491 22.7462 19.1944 23.7467 16.2395C27.434 5.36118 15.4093 -4.20035 5.67339 1.91128Z" fill="#1C626F"/>
</g>
<defs>
<clipPath id="clip0_549_163">
<rect width="24.4286" height="36" fill="white"/>
</clipPath>
</defs>
</svg>
