<svg width="28" height="28" viewBox="0 0 28 28" fill="none" xmlns="http://www.w3.org/2000/svg">
<g clip-path="url(#clip0_880_168)">
<path d="M13.987 2.33301C7.54703 2.33301 2.33203 7.55967 2.33203 13.9997C2.33203 20.4397 7.54703 25.6663 13.987 25.6663C20.4387 25.6663 25.6654 20.4397 25.6654 13.9997C25.6654 7.55967 20.4387 2.33301 13.987 2.33301ZM13.9987 23.333C8.84203 23.333 4.66536 19.1563 4.66536 13.9997C4.66536 8.84301 8.84203 4.66634 13.9987 4.66634C19.1554 4.66634 23.332 8.84301 23.332 13.9997C23.332 19.1563 19.1554 23.333 13.9987 23.333Z" fill="#F2A1C5"/>
<path d="M14.582 8.16699H12.832V15.167L18.957 18.842L19.832 17.407L14.582 14.292V8.16699Z" fill="#F2A1C5"/>
</g>
<defs>
<clipPath id="clip0_880_168">
<rect width="28" height="28" fill="white"/>
</clipPath>
</defs>
</svg>
